<?xml version="1.0" encoding="UTF-8" standalone="no"?>
<!DOCTYPE svg PUBLIC "-//W3C//DTD SVG 1.1//EN" "http://www.w3.org/Graphics/SVG/1.1/DTD/svg11.dtd">
<svg width="100%" height="100%" viewBox="0 0 1024 600" version="1.1" xmlns="http://www.w3.org/2000/svg" xmlns:xlink="http://www.w3.org/1999/xlink" xml:space="preserve" xmlns:serif="http://www.serif.com/" style="fill-rule:evenodd;clip-rule:evenodd;stroke-linejoin:round;stroke-miterlimit:2;" preserveAspectRatio="none">
    <g transform="matrix(-1,0,0,1.19847,1024,300)">
        <path d="M0,0L0,210C0,210 169.748,254.492 256,250C384,243.333 640,176.667 768,170C854.252,165.508 1024,210 1024,210L1024,0L0,0Z" style="fill:rgb(64,195,221);"/>
    </g>
    <g transform="matrix(1,0,0,1,0,300)">
        <path d="M0,-300L0,210C0,210 169.748,254.492 256,250C384,243.333 640,176.667 768,170C854.252,165.508 1024,210 1024,210L1024,-300L0,-300Z" style="fill:rgb(34,49,79);"/>
    </g>
</svg>
