<?xml version="1.0" encoding="UTF-8" standalone="no"?><!DOCTYPE svg PUBLIC "-//W3C//DTD SVG 1.1//EN" "http://www.w3.org/Graphics/SVG/1.1/DTD/svg11.dtd"><svg width="100%" height="100%" viewBox="0 0 724 439" version="1.1" xmlns="http://www.w3.org/2000/svg" xmlns:xlink="http://www.w3.org/1999/xlink" xml:space="preserve" xmlns:serif="http://www.serif.com/" style="fill-rule:evenodd;clip-rule:evenodd;stroke-linejoin:round;stroke-miterlimit:2;"><g id="Logo"><path d="M155.329,438.607C141.038,438.607 127.833,430.983 120.688,418.607C113.543,406.231 113.543,390.983 120.688,378.607C173.705,286.778 274.389,112.39 327.406,20.561C334.551,8.185 347.756,0.561 362.047,0.561C376.338,0.561 389.543,8.185 396.688,20.561C449.705,112.39 550.389,286.778 603.406,378.607C610.551,390.983 610.551,406.231 603.406,418.607C596.261,430.983 583.056,438.607 568.765,438.607C536.423,438.607 500.086,438.607 477.141,438.607C462.85,438.607 449.645,430.983 442.5,418.607C431.027,398.736 412.859,367.267 396.688,339.258C389.543,326.882 376.338,319.258 362.047,319.258C347.756,319.258 334.551,326.882 327.406,339.258C311.235,367.267 293.067,398.736 281.594,418.607C274.449,430.983 261.244,438.607 246.953,438.607L155.329,438.607Z"/><path d="M166.585,219.375C159.444,231.757 146.238,239.387 131.944,239.391C117.65,239.394 104.441,231.769 97.294,219.39C70.192,172.448 32.692,107.496 5.594,60.561C-1.551,48.185 -1.551,32.937 5.594,20.561C12.739,8.185 25.944,0.561 40.235,0.561C72.577,0.561 108.914,0.561 131.859,0.561C146.15,0.561 159.355,8.185 166.5,20.561C179.241,42.63 199.626,77.937 212.365,100.001C219.507,112.372 219.51,127.612 212.374,139.986C200.91,159.863 182.75,191.349 166.585,219.375Z" style="fill-opacity:0.6;"/><path d="M557.406,219.258C564.551,231.634 577.756,239.258 592.047,239.258C606.338,239.258 619.543,231.634 626.688,219.258C653.792,172.314 691.302,107.343 718.406,60.398C725.551,48.022 725.551,32.774 718.406,20.398C711.261,8.022 698.056,0.398 683.765,0.398C651.423,0.398 615.086,0.398 592.141,0.398C577.85,0.398 564.645,8.022 557.5,20.398C544.75,42.482 524.344,77.826 511.594,99.91C504.449,112.286 504.449,127.534 511.594,139.91C523.067,159.781 541.235,191.25 557.406,219.258Z" style="fill-opacity:0.6;"/></g></svg>