<?xml version="1.0" encoding="UTF-8" standalone="no"?>
<!DOCTYPE svg PUBLIC "-//W3C//DTD SVG 1.1//EN" "http://www.w3.org/Graphics/SVG/1.1/DTD/svg11.dtd">
<svg width="100%" height="100%" viewBox="0 0 724 439" version="1.1" xmlns="http://www.w3.org/2000/svg" xmlns:xlink="http://www.w3.org/1999/xlink" xml:space="preserve" xmlns:serif="http://www.serif.com/" style="fill-rule:evenodd;clip-rule:evenodd;stroke-linejoin:round;stroke-miterlimit:2;">
    <g transform="matrix(1,0,0,1,-1136,-150)">
        <g transform="matrix(1,0,0,1,0,-0.994845)">
            <g id="Logo" transform="matrix(1.95385,0,0,1.95385,618.816,-478.024)">
                <path d="M344.199,546.423C336.885,546.423 330.127,542.521 326.47,536.186C322.813,529.852 322.813,522.048 326.47,515.714C353.605,468.715 405.136,379.461 432.27,332.462C435.927,326.128 442.686,322.226 450,322.226C457.314,322.226 464.073,326.128 467.73,332.462C494.864,379.461 546.395,468.715 573.53,515.714C577.187,522.048 577.187,529.852 573.53,536.186C569.873,542.521 563.115,546.423 555.801,546.423C539.248,546.423 520.65,546.423 508.906,546.423C501.592,546.423 494.834,542.521 491.177,536.186C485.305,526.016 476.006,509.91 467.73,495.575C464.073,489.241 457.314,485.339 450,485.339C442.686,485.339 435.927,489.241 432.27,495.575C423.994,509.91 414.695,526.016 408.823,536.186C405.166,542.521 398.408,546.423 391.094,546.423L344.199,546.423Z"/>
                <path d="M349.96,434.217C346.305,440.555 339.547,444.46 332.231,444.461C324.915,444.463 318.154,440.561 314.497,434.225C300.625,410.2 281.432,376.956 267.563,352.935C263.906,346.6 263.906,338.796 267.563,332.462C271.22,326.128 277.979,322.226 285.293,322.226L332.187,322.226C339.501,322.226 346.26,326.128 349.917,332.462C356.438,343.757 366.871,361.828 373.391,373.121C377.046,379.452 377.048,387.252 373.396,393.585C367.528,403.758 358.234,419.873 349.96,434.217Z"/>
                <g transform="matrix(1,0,0,1,-11.8198,-20.3058)">
                    <path d="M561.807,454.463C565.464,460.798 572.222,464.7 579.536,464.7C586.85,464.7 593.609,460.798 597.266,454.463C611.138,430.437 630.336,397.184 644.208,373.157C647.865,366.823 647.865,359.019 644.208,352.685C640.551,346.35 633.793,342.448 626.479,342.448L579.584,342.448C572.27,342.448 565.512,346.35 561.855,352.685C555.329,363.987 544.885,382.077 538.36,393.379C534.703,399.714 534.703,407.518 538.36,413.852C544.231,424.022 553.53,440.128 561.807,454.463Z"/>
                </g>
            </g>
        </g>
    </g>
</svg>
